<svg id="Layer_1" data-name="Layer 1" xmlns="http://www.w3.org/2000/svg" viewBox="0 0 209.58 186.29"><defs><style>.cls-1{fill:#a9a9b5;}</style></defs><path class="cls-1" d="M101.87,60a28.34,28.34,0,0,1,2.91-.14,33.3,33.3,0,1,1-33.29,33.3,28.4,28.4,0,0,1,.13-2.92,25.53,25.53,0,0,0,11,2.92A22.22,22.22,0,0,0,104.78,71,25.44,25.44,0,0,0,101.87,60Zm69.71-16.58c16.23,15.05,27.08,32.78,32.22,45.47a11.07,11.07,0,0,1,0,8.53c-5.14,12.38-16,30.1-32.22,45.47-16.34,15.19-38.78,28-66.8,28s-50.46-12.76-66.79-28C21.76,127.51,10.91,109.79,5.75,97.41a11.07,11.07,0,0,1,0-8.53c5.16-12.69,16-30.42,32.24-45.47s38.77-27.95,66.79-27.95,50.46,12.77,66.8,27.95Zm-66.8-.21a49.95,49.95,0,1,0,49.94,50A50,50,0,0,0,104.78,43.2Z"/></svg>